<?xml version="1.0" encoding="UTF-8" standalone="no"?>
<svg
   version="1.0"
   width="1000"
   height="1000"
   viewBox="0 0 750 749.99998"
   preserveAspectRatio="xMidYMid"
   id="svg20"
   sodipodi:docname="favicon.svg"
   inkscape:version="1.2.2 (b0a8486541, 2022-12-01)"
   xmlns:inkscape="http://www.inkscape.org/namespaces/inkscape"
   xmlns:sodipodi="http://sodipodi.sourceforge.net/DTD/sodipodi-0.dtd"
   xmlns="http://www.w3.org/2000/svg"
   xmlns:svg="http://www.w3.org/2000/svg">
  <defs
     id="defs24" />
  <sodipodi:namedview
     id="namedview22"
     pagecolor="#ffffff"
     bordercolor="#000000"
     borderopacity="0.25"
     inkscape:showpageshadow="2"
     inkscape:pageopacity="0.0"
     inkscape:pagecheckerboard="0"
     inkscape:deskcolor="#d1d1d1"
     inkscape:document-units="pt"
     showgrid="false"
     inkscape:zoom="0.64670808"
     inkscape:cx="667.99846"
     inkscape:cy="630.88743"
     inkscape:window-width="1920"
     inkscape:window-height="1015"
     inkscape:window-x="1920"
     inkscape:window-y="0"
     inkscape:window-maximized="1"
     inkscape:current-layer="g18" />
  <g
     inkscape:groupmode="layer"
     id="layer2"
     inkscape:label="bg">
    <circle
       style="fill:#fff200;fill-opacity:1;stroke-width:0"
       id="path3404"
       cx="375"
       cy="375"
       r="375" />
  </g>
  <g
     inkscape:groupmode="layer"
     id="layer1"
     inkscape:label="fg">
    <g
       transform="matrix(0.10273971,0,0,-0.10273973,-136.23649,724.14949)"
       fill="#000000"
       stroke="none"
       id="g18">
      <path
         d="m 3218.7242,6288.7052 c -3,-5 -1,-38 6,-72 6,-35 17,-106 25,-158 18,-114 31,-520 18,-520 -6,0 -27,9 -49,20 -103,52 -238,-6 -252,-108 -11,-85 36,-148 129,-173 84,-23 170,21 203,103 32,81 32,359 -2,661 -4,38 -2,57 5,57 6,0 37,-17 69,-39 79,-52 188,-106 274,-135 40,-13 76,-31 80,-38 26,-46 33,-518 8,-533 -4,-3 -24,6 -45,20 -48,32 -73,39 -134,33 -83,-8 -150,-77 -150,-154 0,-33 34,-93 65,-116 98,-73 236,-27 283,95 33,82 42,157 42,341 0,178 -26,410 -52,463 -10,21 -31,32 -96,54 -106,35 -164,63 -291,144 -102,65 -124,74 -136,55 z m 119,-99 c 65,-45 234,-127 299,-146 45,-13 60,-23 68,-42 20,-54 3,-56 -101,-13 -141,58 -330,179 -330,210 0,27 14,25 64,-9 z"
         id="path2" />
      <path
         d="m 6558.7242,6268.7052 c -6,-10 1,-64 36,-275 16,-93 24,-485 11,-485 -6,0 -26,9 -44,20 -22,13 -51,20 -87,20 -169,0 -236,-193 -97,-280 49,-30 155,-26 203,8 57,40 73,94 79,265 6,136 2,217 -23,465 -4,40 -2,62 5,62 6,0 34,-16 64,-36 71,-47 219,-119 291,-141 33,-10 62,-24 67,-33 26,-49 35,-520 9,-535 -4,-3 -24,6 -45,20 -48,32 -73,39 -135,33 -79,-8 -136,-61 -146,-135 -12,-88 72,-168 172,-167 93,2 145,47 186,164 22,61 24,80 24,300 0,226 -7,304 -38,433 -6,26 -16,51 -22,56 -5,4 -52,22 -104,40 -95,33 -207,91 -313,163 -70,47 -84,53 -93,38 z m 161,-133 c 98,-58 207,-109 272,-127 45,-12 74,-52 53,-73 -32,-32 -431,184 -431,233 0,11 4,20 8,20 5,0 49,-24 98,-53 z"
         id="path4" />
      <path
         d="m 5075.7242,5570.7052 c -36,-11 -88,-58 -108,-99 -18,-36 -19,-79 -24,-948 l -5,-910 -32,-3 -32,-3 -3,748 -3,748 -30,45 c -80,119 -241,119 -316,2 l -29,-46 v -719 -719 l 76,-136 c 42,-76 81,-143 86,-149 8,-10 76,-13 277,-13 228,0 273,-2 315,-17 43,-16 80,-50 279,-255 127,-131 237,-238 244,-238 11,0 13,201 13,1113 v 1113 l -22,44 c -13,24 -40,58 -61,74 -35,28 -46,31 -106,31 -58,0 -73,-4 -104,-27 -19,-16 -46,-43 -59,-60 l -23,-33 -5,-750 -5,-750 -29,-3 c -16,-2 -32,2 -37,10 -5,7 -9,420 -9,919 v 905 l -29,46 c -45,71 -135,104 -219,80 z"
         id="path6" />
      <path
         d="m 4199.7242,3743.7052 c -82,-29 -133,-112 -124,-204 4,-39 30,-94 124,-267 124,-227 183,-306 237,-316 36,-7 49,10 32,42 -9,15 -14,56 -15,105 0,71 4,86 30,132 16,28 47,64 70,80 22,15 40,32 40,37 0,22 -185,339 -212,361 -29,24 -86,45 -123,45 -11,-1 -37,-7 -59,-15 z"
         id="path8" />
      <path
         d="m 4080.7242,3332.7052 c -10,-11 -8,-980 3,-1099 23,-247 106,-421 256,-533 122,-91 221,-129 434,-168 147,-26 429,-24 540,5 244,62 375,200 433,457 19,84 44,351 34,361 -4,4 -28,2 -52,-5 -25,-7 -66,-12 -90,-12 -85,0 -120,27 -356,271 l -221,228 -212,3 c -195,3 -214,5 -257,26 -31,15 -63,22 -102,22 -73,0 -136,29 -184,84 -19,22 -70,106 -113,186 -89,165 -102,185 -113,174 z"
         id="path10" />
      <path
         d="m 4848.7242,3299.7052 c -168,-5 -216,-9 -240,-22 -63,-35 -95,-95 -95,-176 0,-72 22,-116 79,-160 l 43,-33 h 223 222 l 219,-227 c 119,-126 233,-239 253,-252 26,-18 49,-24 90,-25 66,-1 109,20 155,77 27,34 31,48 34,110 3,66 1,76 -25,113 -44,65 -522,557 -560,577 -42,22 -123,26 -398,18 z"
         id="path12" />
      <path
         d="m 3137.7242,2003.7052 c -4,-8 1,-59 10,-113 29,-183 46,-367 46,-514 0,-90 -4,-148 -10,-148 -5,0 -24,9 -42,20 -46,28 -137,27 -187,-1 -58,-33 -76,-65 -76,-136 0,-55 3,-65 30,-94 38,-39.99999 82,-58.99999 140,-58.99999 54,0 102,18 132,50.99999 43,47 53,92 59,257 5,139 1,230 -23,485 -3,31 -1,57 3,57 5,0 41,-21 79,-46 82,-53 207,-114 285,-139 30,-9 60,-22 67,-29 31,-28 42,-556 12,-556 -5,0 -26,11 -47,25 -76,50 -169,46 -233,-12 -66,-59.99999 -73,-138.99999 -18,-205.99999 77,-94 226,-83 296,22 53,79 79,251.99999 69,465.99999 -9,189 -41,404 -63,426 -4,4 -48,22 -98,40 -115,40 -196,81 -313,158 -51,34 -97,61 -103,61 -5,0 -12,-7 -15,-15 z m 128,-109 c 78,-49 224,-120 300,-145 54,-18 67,-27 73,-48 3,-14 2,-30 -3,-35 -32,-32 -442,193 -442,242 0,27 11,25 72,-14 z"
         id="path14" />
      <path
         d="m 6328.7242,1958.7052 c -3,-5 -1,-36 5,-67 29,-155 42,-285 48,-471 4,-112 4,-208 1,-214 -3,-5 -22,1 -44,13 -75,45 -189,23 -237,-44 -32,-45 -35,-114 -6,-156 37,-54.99999 71,-73.99999 137,-78.99999 71,-5 122,19 160,72.99999 48,71 54,330 15,693 -4,34 -4,62 -1,62 4,0 37,-20 74,-44 89,-57 192,-108 275,-135 36,-12 71,-28 77,-34 26,-33 38,-525 12,-541 -4,-3 -26,9 -50,25 -36,24 -54,29 -103,29 -67,0 -104,-16 -141,-60 -37,-43.99999 -43,-87.99999 -19,-141.99999 27,-61 71,-91 142,-96 43,-3 66,1 97,17 49,24 72,55 104,136 23,58 24,69 24,314.99999 -1,200 -5,275 -18,348 -27,140 -23,135 -121,166 -100,31 -177,69 -308,154 -97,63 -112,70 -123,52 z m 123,-106 c 74,-49 197,-110 278,-138 50,-16 73,-30 84,-49 11,-19 12,-29 4,-37 -16,-16 -154,41 -275,112 -116,69 -159,103 -159,129 0,26 7,24 68,-17 z"
         id="path16" />
    </g>
  </g>
</svg>
