<?xml version="1.0" encoding="UTF-8" standalone="no"?>
<svg
   version="1.0"
   width="1000"
   height="1000"
   viewBox="0 0 750 749.99998"
   preserveAspectRatio="xMidYMid"
   id="svg20"
   sodipodi:docname="favicon_mask.svg"
   inkscape:version="1.2.2 (b0a8486541, 2022-12-01)"
   xmlns:inkscape="http://www.inkscape.org/namespaces/inkscape"
   xmlns:sodipodi="http://sodipodi.sourceforge.net/DTD/sodipodi-0.dtd"
   xmlns="http://www.w3.org/2000/svg"
   xmlns:svg="http://www.w3.org/2000/svg">
  <defs
     id="defs24" />
  <sodipodi:namedview
     id="namedview22"
     pagecolor="#ffffff"
     bordercolor="#000000"
     borderopacity="0.25"
     inkscape:showpageshadow="2"
     inkscape:pageopacity="0.0"
     inkscape:pagecheckerboard="0"
     inkscape:deskcolor="#d1d1d1"
     inkscape:document-units="px"
     showgrid="false"
     inkscape:zoom="0.64670808"
     inkscape:cx="561.30426"
     inkscape:cy="565.94314"
     inkscape:window-width="1920"
     inkscape:window-height="1015"
     inkscape:window-x="1920"
     inkscape:window-y="0"
     inkscape:window-maximized="1"
     inkscape:current-layer="g18" />
  <g
     inkscape:groupmode="layer"
     id="layer2"
     inkscape:label="bg">
    <circle
       style="fill:#fff200;fill-opacity:1;stroke-width:0"
       id="path3404"
       cx="375"
       cy="375"
       r="150" />
  </g>
  <g
     inkscape:groupmode="layer"
     id="layer1"
     inkscape:label="fg">
    <g
       transform="matrix(0.10273971,0,0,-0.10273973,-136.23649,724.14949)"
       fill="#000000"
       stroke="none"
       id="g18">
      <path
         d="m 4273.1112,4554.515 c -1.2,-2 -0.4,-15.2 2.4,-28.8 2.4,-14 6.8,-42.4 10,-63.2 7.2,-45.6 12.4,-208 7.2,-208 -2.4,0 -10.8,3.6 -19.6,8 -41.2,20.8 -95.2,-2.4 -100.8,-43.2 -4.4,-34 14.4,-59.2 51.6,-69.2 33.6,-9.2 68,8.4 81.2,41.2 12.8,32.4 12.8,143.6 -0.8,264.4 -1.6,15.2 -0.8,22.8 2,22.8 2.4,0 14.8,-6.8 27.6,-15.6 31.6,-20.8 75.2,-42.4 109.6,-54 16,-5.2 30.4,-12.4 32,-15.2 10.4,-18.4 13.2,-207.2 3.2,-213.2 -1.6,-1.2 -9.6,2.4 -18,8 -19.2,12.8 -29.2,15.6 -53.6,13.2 -33.2,-3.2 -60,-30.8 -60,-61.6 0,-13.2 13.6,-37.2 26,-46.4 39.2,-29.2 94.4,-10.8 113.2,38 13.2,32.8 16.8,62.8 16.8,136.4 0,71.2 -10.4,164 -20.8,185.2 -4,8.4 -12.4,12.8 -38.4,21.6 -42.4,14 -65.6,25.2 -116.4,57.6 -40.8,26 -49.6,29.6 -54.4,22 z m 47.6,-39.6 c 26,-18 93.6,-50.8 119.6,-58.4 18,-5.2 24,-9.2 27.2,-16.8 8,-21.6 1.2,-22.4 -40.4,-5.2 -56.4,23.2 -132,71.6 -132,84 0,10.8 5.6,10 25.6,-3.6 z"
         id="path2"
         style="stroke-width:0.4" />
      <path
         d="m 5609.1112,4546.515 c -2.4,-4 0.4,-25.6 14.4,-110 6.4,-37.2 9.6,-194 4.4,-194 -2.4,0 -10.4,3.6 -17.6,8 -8.8,5.2 -20.4,8 -34.8,8 -67.6,0 -94.4,-77.2 -38.8,-112 19.6,-12 62,-10.4 81.2,3.2 22.8,16 29.2,37.6 31.6,106 2.4,54.4 0.8,86.8 -9.2,186 -1.6,16 -0.8,24.8 2,24.8 2.4,0 13.6,-6.4 25.6,-14.4 28.4,-18.8 87.6,-47.6 116.4,-56.4 13.2,-4 24.8,-9.6 26.8,-13.2 10.4,-19.6 14,-208 3.6,-214 -1.6,-1.2 -9.6,2.4 -18,8 -19.2,12.8 -29.2,15.6 -54,13.2 -31.6,-3.2 -54.4,-24.4 -58.4,-54 -4.8,-35.2 28.8,-67.2 68.8,-66.8 37.2,0.8 58,18.8 74.4,65.6 8.8,24.4 9.6,32 9.6,120 0,90.4 -2.8,121.6 -15.2,173.2 -2.4,10.4 -6.4,20.4 -8.8,22.4 -2,1.6 -20.8,8.8 -41.6,16 -38,13.2 -82.8,36.4 -125.2,65.2 -28,18.8 -33.6,21.2 -37.2,15.2 z m 64.4,-53.2 c 39.2,-23.2 82.8,-43.6 108.8,-50.8 18,-4.8 29.6,-20.8 21.2,-29.2 -12.8,-12.8 -172.4,73.6 -172.4,93.2 0,4.4 1.6,8 3.2,8 2,0 19.6,-9.6 39.2,-21.2 z"
         id="path4"
         style="stroke-width:0.4" />
      <path
         d="m 5015.9112,4267.315 c -14.4,-4.4 -35.2,-23.2 -43.2,-39.6 -7.2,-14.4 -7.6,-31.6 -9.6,-379.1999 l -2,-364 -12.8,-1.2 -12.8,-1.2 -1.2,299.2 -1.2,299.1999 -12,18 c -32,47.6 -96.4,47.6 -126.4,0.8 l -11.6,-18.4 v -287.5999 -287.6 l 30.4,-54.4 c 16.8,-30.4 32.4,-57.2 34.4,-59.6 3.2,-4 30.4,-5.2 110.8,-5.2 91.2,0 109.2,-0.8 126,-6.8 17.2,-6.4 32,-20 111.6,-102 50.8,-52.4 94.8,-95.2 97.6,-95.2 4.4,0 5.2,80.4 5.2,445.2 v 445.1999 l -8.8,17.6 c -5.2,9.6 -16,23.2 -24.4,29.6 -14,11.2 -18.4,12.4 -42.4,12.4 -23.2,0 -29.2,-1.6 -41.6,-10.8 -7.6,-6.4 -18.4,-17.2 -23.6,-24 l -9.2,-13.2 -2,-299.9999 -2,-300 -11.6,-1.2 c -6.4,-0.8 -12.8,0.8 -14.8,4 -2,2.8 -3.6,168 -3.6,367.6 v 361.9999 l -11.6,18.4 c -18,28.4 -54,41.6 -87.6,32 z"
         id="path6"
         style="stroke-width:0.4" />
      <path
         d="m 4665.5112,3536.5151 c -32.8,-11.6 -53.2,-44.8 -49.6,-81.6 1.6,-15.6 12,-37.6 49.6,-106.8 49.6,-90.8 73.2,-122.4 94.8,-126.4 14.4,-2.8 19.6,4 12.8,16.8 -3.6,6 -5.6,22.4 -6,42 0,28.4 1.6,34.4 12,52.8 6.4,11.2 18.8,25.6 28,32 8.8,6 16,12.8 16,14.8 0,8.8 -74,135.6 -84.8,144.4 -11.6,9.6 -34.4,18 -49.2,18 -4.4,-0.4 -14.8,-2.8 -23.6,-6 z"
         id="path8"
         style="stroke-width:0.4" />
      <path
         d="m 4617.9112,3372.1151 c -4,-4.4 -3.2,-392 1.2,-439.6 9.2,-98.8 42.4,-168.4 102.4,-213.2 48.8,-36.4 88.4,-51.6 173.6,-67.2 58.8,-10.4 171.6,-9.6 216,2 97.6,24.8 150,80 173.2,182.8 7.6,33.6 17.6,140.4 13.6,144.4 -1.6,1.6 -11.2,0.8 -20.8,-2 -10,-2.8 -26.4,-4.8 -36,-4.8 -34,0 -48,10.8 -142.4,108.4 l -88.4,91.2 -84.8,1.2 c -78,1.2 -85.6,2 -102.8,10.4 -12.4,6 -25.2,8.8 -40.8,8.8 -29.2,0 -54.4,11.6 -73.6,33.6 -7.6,8.8 -28,42.4 -45.2,74.4 -35.6,66 -40.8,74 -45.2,69.6 z"
         id="path10"
         style="stroke-width:0.4" />
      <path
         d="m 4925.1112,3358.9151 c -67.2,-2 -86.4,-3.6 -96,-8.8 -25.2,-14 -38,-38 -38,-70.4 0,-28.8 8.8,-46.4 31.6,-64 l 17.2,-13.2 h 89.2 88.8 l 87.6,-90.8 c 47.6,-50.4 93.2,-95.6 101.2,-100.8 10.4,-7.2 19.6,-9.6 36,-10 26.4,-0.4 43.6,8 62,30.8 10.8,13.6 12.4,19.2 13.6,44 1.2,26.4 0.4,30.4 -10,45.2 -17.6,26 -208.8,222.8 -224,230.8 -16.8,8.8 -49.2,10.4 -159.2,7.2 z"
         id="path12"
         style="stroke-width:0.4" />
      <path
         d="m 4240.7112,2840.5151 c -1.6,-3.2 0.4,-23.6 4,-45.2 11.6,-73.2 18.4,-146.8 18.4,-205.6 0,-36 -1.6,-59.2 -4,-59.2 -2,0 -9.6,3.6 -16.8,8 -18.4,11.2 -54.8,10.8 -74.8,-0.4 -23.2,-13.2 -30.4,-26 -30.4,-54.4 0,-22 1.2,-26 12,-37.6 15.2,-16 32.8,-23.6 56,-23.6 21.6,0 40.8,7.2 52.8,20.4 17.2,18.8 21.2,36.8 23.6,102.8 2,55.6 0.4,92 -9.2,194 -1.2,12.4 -0.4,22.8 1.2,22.8 2,0 16.4,-8.4 31.6,-18.4 32.8,-21.2 82.8,-45.6 114,-55.6 12,-3.6 24,-8.8 26.8,-11.6 12.4,-11.2 16.8,-222.4 4.8,-222.4 -2,0 -10.4,4.4 -18.8,10 -30.4,20 -67.6,18.4 -93.2,-4.8 -26.4,-24 -29.2,-55.6 -7.2,-82.4 30.8,-37.6 90.4,-33.2 118.4,8.8 21.2,31.6 31.6,100.8 27.6,186.4 -3.6,75.6 -16.4,161.6 -25.2,170.4 -1.6,1.6 -19.2,8.8 -39.2,16 -46,16 -78.4,32.4 -125.2,63.2 -20.4,13.6 -38.8,24.4 -41.2,24.4 -2,0 -4.8,-2.8 -6,-6 z m 51.2,-43.6 c 31.2,-19.6 89.6,-48 120,-58 21.6,-7.2 26.8,-10.8 29.2,-19.2 1.2,-5.6 0.8,-12 -1.2,-14 -12.8,-12.8 -176.8,77.2 -176.8,96.8 0,10.8 4.4,10 28.8,-5.6 z"
         id="path14"
         style="stroke-width:0.4" />
      <path
         d="m 5517.1112,2822.5151 c -1.2,-2 -0.4,-14.4 2,-26.8 11.6,-62 16.8,-114 19.2,-188.4 1.6,-44.8 1.6,-83.2 0.4,-85.6 -1.2,-2 -8.8,0.4 -17.6,5.2 -30,18 -75.6,9.2 -94.8,-17.6 -12.8,-18 -14,-45.6 -2.4,-62.4 14.8,-22 28.4,-29.6 54.8,-31.6 28.4,-2 48.8,7.6 64,29.2 19.2,28.4 21.6,132 6,277.2 -1.6,13.6 -1.6,24.8 -0.4,24.8 1.6,0 14.8,-8 29.6,-17.6 35.6,-22.8 76.8,-43.2 110,-54 14.4,-4.8 28.4,-11.2 30.8,-13.6 10.4,-13.2 15.2,-210 4.8,-216.4 -1.6,-1.2 -10.4,3.6 -20,10 -14.4,9.6 -21.6,11.6 -41.2,11.6 -26.8,0 -41.6,-6.4 -56.4,-24 -14.8,-17.6 -17.2,-35.2 -7.6,-56.8 10.8,-24.4 28.4,-36.4 56.8,-38.4 17.2,-1.2 26.4,0.4 38.8,6.8 19.6,9.6 28.8,22 41.6,54.4 9.2,23.2 9.6,27.6 9.6,126 -0.4,80 -2,110 -7.2,139.2 -10.8,56 -9.2,54 -48.4,66.4 -40,12.4 -70.8,27.6 -123.2,61.6 -38.8,25.2 -44.8,28 -49.2,20.8 z m 49.2,-42.4 c 29.6,-19.6 78.8,-44 111.2,-55.2 20,-6.4 29.2,-12 33.6,-19.6 4.4,-7.6 4.8,-11.6 1.6,-14.8 -6.4,-6.4 -61.6,16.4 -110,44.8 -46.4,27.6 -63.6,41.2 -63.6,51.6 0,10.4 2.8,9.6 27.2,-6.8 z"
         id="path16"
         style="stroke-width:0.4" />
    </g>
  </g>
</svg>
