<?xml version="1.0" encoding="UTF-8" standalone="no"?>
<!-- Created with Inkscape (http://www.inkscape.org/) -->

<svg
   version="1.1"
   id="svg2"
   width="408.18668"
   height="510.23999"
   viewBox="0 0 408.18668 510.23999"
   sodipodi:docname="skautlogo.svg"
   inkscape:version="1.2.2 (b0a8486541, 2022-12-01)"
   xmlns:inkscape="http://www.inkscape.org/namespaces/inkscape"
   xmlns:sodipodi="http://sodipodi.sourceforge.net/DTD/sodipodi-0.dtd"
   xmlns="http://www.w3.org/2000/svg"
   xmlns:svg="http://www.w3.org/2000/svg">
  <defs
     id="defs6" />
  <sodipodi:namedview
     id="namedview4"
     pagecolor="#ffffff"
     bordercolor="#000000"
     borderopacity="0.25"
     inkscape:showpageshadow="2"
     inkscape:pageopacity="0.0"
     inkscape:pagecheckerboard="0"
     inkscape:deskcolor="#d1d1d1"
     showgrid="false"
     inkscape:zoom="1.2167603"
     inkscape:cx="147.93382"
     inkscape:cy="278.6087"
     inkscape:window-width="1920"
     inkscape:window-height="1015"
     inkscape:window-x="1920"
     inkscape:window-y="0"
     inkscape:window-maximized="1"
     inkscape:current-layer="g10">
    <inkscape:page
       x="0"
       y="0"
       id="page8"
       width="408.18668"
       height="510.23999" />
  </sodipodi:namedview>
  <g
     id="g10"
     inkscape:groupmode="layer"
     inkscape:label="Page 1"
     transform="matrix(1.3333333,0,0,-1.3333333,0,510.24)">
    <g
       id="g12"
       transform="scale(0.1)">
      <path
         d="m 1526.45,2330.44 c -9.5,-1.42 -21.27,3.65 -18.65,7.11 1.13,1.49 4.08,5.4 1.82,10.11 -3.09,6.42 -13,6.52 -19.38,2.47 5.12,11.6 21.66,19.37 35.73,19.37 19.84,0 24.41,-11.3 23.22,-19.95 -1.42,-10.36 -10.44,-17.27 -22.74,-19.11 z m 211.07,-21.51 c -1.74,6.93 -5.92,27.86 -4.11,33.42 1.78,5.57 6.14,16.75 9.32,26.04 16.46,47.8 8.9,97.86 3.63,109.24 -1.02,2.2 -3.24,2.5 -4.76,2.74 -23.33,3.5 -42.46,-11.49 -65.7,-39.4 -9.3,-11.16 -19.77,-19.66 -22.39,-4.36 -1.76,10.1 6.14,30.84 -3.3,29.91 -21.88,-2.3 -36.13,-14.84 -48.51,-31.11 -9.54,-12.58 -10.26,-19.18 -21.35,-19.51 -22.14,-1 -32.45,-1.91 -49.52,-5.99 -17.12,-4.07 -31.59,-10.45 -41.85,-16.79 -12.85,-8.01 -22.48,-20.05 -52.66,-20.29 -48.34,-0.41 -109.68,-1.52 -133.48,-6.06 -24.47,-4.65 -27.94,-20.19 -14.96,-41.9 15.24,-25.41 19.76,-80.02 50.52,-87.81 8.16,-17.34 13.72,-30.56 21.66,-29.79 2.73,0.57 5.51,8.99 7.5,16.76 4.26,17.04 20.77,17.79 31.67,18.35 27.49,1.4 48.82,-0.17 67.4,-10.62 12.72,-7.17 18.94,-19.92 16.54,-24.85 -4.33,-8.85 -13.43,3.23 -60.62,-6.32 -26.67,-5.39 -43,-19.69 -77.36,-19.69 -51.2,0 -76.28,34.67 -85.29,65.63 -4.54,15.53 -7.83,30.01 -26.12,12.91 -23.49,-21.97 -25.22,-63.75 -0.93,-89.27 16.11,-16.92 38.65,-25.73 65.81,-28.24 8.32,-0.65 24.94,-1.06 38.51,-0.43 0,0 -3.87,-10.62 1.97,-20 5.87,-9.4 23.38,-16.69 51.31,-8.38 39.96,11.9 74.3,23.01 101.81,2.46 5,-3.73 11.18,-10.62 11.18,-15.1 0,-8.15 -29.98,-31.56 -114.06,-54.2 -103.38,-27.84 -127.64,-97.06 -117.17,-134.9 0.94,-3.46 3.17,-6.83 5.79,-6.97 2.87,-0.16 18.7,9.12 27.75,10.75 17.6,3.14 10.18,-9.64 7.94,-25.73 -7.98,-57.39 73.59,-129.78 145.63,-179.65 39.89,-27.61 61.36,-37.03 71.42,-37.03 10.3,0 31.62,7.62 71.41,37.03 112.29,82.98 186.75,199.19 174.68,261.1 -6.85,35.13 -25.14,56.52 -16.4,62.17 10.12,6.5 31.8,-10.35 36.58,-7.38 11.28,7 16.42,72.02 -4.37,140.01 -19.74,64.58 -41.89,90.38 -55.12,143.25"
         style="fill:#304488;fill-opacity:1;fill-rule:nonzero;stroke:none"
         id="path14" />
      <path
         d="m 598.012,2344.13 c 17.562,130.12 90.965,226.79 172.488,273.12 129.953,73.83 258.71,45.87 349,25.49 13.39,-3.03 24.27,-1.1 28.45,7.05 3.4,6.72 1.01,14.36 -9.59,25.5 -42.45,44.71 -140.126,141.87 -152.356,152.08 -29.731,24.79 -78.852,39.5 -117.27,39.5 -219.57,0 -358.492,-166.98 -358.492,-352.86 0,-48.65 13.61,-111.53 28.551,-146.87 13.883,-32.8 29.258,-61.94 41.453,-61.94 14.078,0 15.184,19.85 17.766,38.93"
         style="fill:#4675be;fill-opacity:1;fill-rule:nonzero;stroke:none"
         id="path16" />
      <path
         d="m 1860.02,2702.6 c -6.16,4.69 -7.55,13.95 -6.15,28.02 9.3,93.33 -0.16,185.13 -18.82,228.22 -23.98,55.42 -81.39,136.29 -126.27,183.29 -58.24,60.99 -79.18,77.79 -106,98.13 -6.72,5.09 -21.2,13.29 -21.2,20.06 0,7.5 11.16,15.27 24.66,21.53 25.17,11.68 62.08,27.56 129.48,33.37 80.16,6.89 194.39,-10.4 280.64,-120.63 48.68,-62.22 55.5,-137.49 55.5,-188.42 0,-60.61 -9.71,-115.15 -38.52,-146.62 -42.68,-46.6 -134.09,-137.58 -146.11,-148.39 -5.83,-5.25 -19.13,-14.66 -27.21,-8.56"
         style="fill:#4675be;fill-opacity:1;fill-rule:nonzero;stroke:none"
         id="path18" />
      <path
         d="m 2175.48,1662.33 c 220.06,-13.89 375.72,171.46 375.72,353.23 0,69.11 -10.04,105.52 -28.4,143.93 -15.66,32.75 -33.65,54.96 -44.39,54.91 -10.57,-0.02 -13.76,-15.47 -15.48,-24.56 -42.62,-222.77 -199.77,-352.07 -306.74,-353.81 -31.37,-0.52 -69.53,6.69 -72.93,21.93 -4.87,21.83 32.64,68.4 32.64,155.78 0,35.38 -15.55,99.51 -113.49,103.37 -86.32,3.41 -128.23,-77.37 -128.23,-148.82 0,-148.32 109.17,-293.81 301.3,-305.96"
         style="fill:#4675be;fill-opacity:1;fill-rule:nonzero;stroke:none"
         id="path20" />
      <path
         d="m 885.98,1662.33 c -220.062,-13.89 -375.722,171.46 -375.722,353.23 0,69.11 10.043,105.52 28.402,143.93 15.656,32.75 33.641,54.96 44.387,54.91 10.57,-0.02 13.758,-15.47 15.476,-24.56 42.618,-222.77 199.77,-352.07 306.743,-353.81 31.363,-0.52 69.527,6.69 72.929,21.93 4.871,21.83 -32.64,68.4 -32.64,155.78 0,35.38 15.547,99.51 113.485,103.37 86.32,3.41 128.23,-77.37 128.23,-148.82 0,-148.32 -109.16,-293.81 -301.29,-305.96"
         style="fill:#375aa7;fill-opacity:1;fill-rule:nonzero;stroke:none"
         id="path22" />
      <path
         d="m 1201.43,2702.6 c 6.16,4.69 7.55,13.95 6.15,28.02 -9.3,93.33 0.16,185.13 18.82,228.22 23.98,55.42 81.39,136.29 126.27,183.29 58.24,60.99 79.19,77.79 106,98.13 6.72,5.09 21.2,13.29 21.2,20.06 0,7.5 -11.16,15.27 -24.66,21.53 -25.16,11.68 -62.08,27.56 -129.47,33.37 -80.17,6.89 -194.4,-10.4 -280.65,-120.63 -48.68,-62.22 -55.496,-137.49 -55.496,-188.42 0,-60.61 9.703,-115.15 38.516,-146.62 42.68,-46.6 134.09,-137.58 146.11,-148.39 5.83,-5.25 19.14,-14.66 27.21,-8.56"
         style="fill:#375aa7;fill-opacity:1;fill-rule:nonzero;stroke:none"
         id="path24" />
      <path
         d="m 2463.44,2344.13 c -17.56,130.12 -90.96,226.79 -172.49,273.12 -129.95,73.83 -258.71,45.87 -349,25.49 -13.39,-3.03 -24.27,-1.1 -28.45,7.05 -3.4,6.72 -1,14.36 9.59,25.5 42.46,44.71 140.13,141.87 152.36,152.08 29.73,24.79 78.85,39.5 117.27,39.5 219.57,0 358.49,-166.98 358.49,-352.86 0,-48.65 -13.61,-111.53 -28.55,-146.87 -13.88,-32.8 -29.26,-61.94 -41.45,-61.94 -14.08,0 -15.18,19.85 -17.77,38.93"
         style="fill:#375aa7;fill-opacity:1;fill-rule:nonzero;stroke:none"
         id="path26" />
      <path
         d="m 955.813,2614.54 c 97.597,0 220.287,-33.65 262.897,-66.55 13.52,-10.46 17.95,-25.57 -1.25,-44.76 -25.09,-25.1 -75.23,-75.23 -95.36,-95.37 -18,-17.99 -25.06,-28.59 -25.06,-65.74 0,-56.21 0,-122.3 0,-146.34 0,-17.63 -7.11,-25.18 -33.18,-28.26 -6.66,-0.78 -20.46,-1.58 -30.76,-2.54 -35.373,-3.29 -81.323,-16.28 -113.537,-66.79 -41.625,-65.23 -16.11,-149.72 -4.778,-182.46 8.242,-23.78 6.824,-37.96 -28.847,-30.83 -99.059,19.84 -251.825,201.81 -242.875,403.64 9.261,209.35 147.25,326 312.75,326"
         style="fill:#f9a70d;fill-opacity:1;fill-rule:nonzero;stroke:none"
         id="path28" />
      <path
         d="m 2105.64,2614.54 c -97.6,0 -220.29,-33.65 -262.89,-66.55 -13.52,-10.46 -17.96,-25.57 1.24,-44.76 25.1,-25.1 75.24,-75.23 95.37,-95.37 17.99,-17.99 25.06,-28.59 25.06,-65.74 0,-56.21 0,-122.3 0,-146.34 0,-17.63 7.1,-25.18 33.18,-28.26 6.66,-0.78 20.45,-1.58 30.75,-2.54 35.38,-3.29 81.33,-16.28 113.54,-66.79 41.63,-65.23 16.11,-149.72 4.78,-182.46 -8.25,-23.78 -6.83,-37.96 28.85,-30.83 99.06,19.84 251.82,201.81 242.87,403.64 -9.26,209.35 -147.25,326 -312.75,326"
         style="fill:#f9a70d;fill-opacity:1;fill-rule:nonzero;stroke:none"
         id="path30" />
      <path
         d="m 1702.24,1594.37 c 49.37,37.2 76.03,62.18 117.26,104.38 19.02,19.46 40.84,21.53 63.69,-0.49 31.76,-30.67 70.84,-55.74 127.99,-60.45 22.92,-1.9 35.15,5.43 51.33,-2.45 8.24,-4 16.09,-15.06 16.66,-34.01 2.29,-75.5 -33.8,-162.94 -143.15,-182.47 -70.87,-12.66 -142.09,8.81 -177.28,41.81 -24.09,22.55 -50.66,47.68 -66.1,68.53 -16.13,21.74 -15.39,46.35 9.6,65.15"
         style="fill:#f9a70d;fill-opacity:1;fill-rule:nonzero;stroke:none"
         id="path32" />
      <path
         d="m 1359.21,1594.37 c -49.37,37.2 -76.03,62.18 -117.26,104.38 -19.01,19.46 -40.84,21.53 -63.69,-0.49 -31.76,-30.67 -70.84,-55.74 -127.99,-60.45 -22.91,-1.9 -35.15,5.43 -51.325,-2.45 -8.238,-4 -16.093,-15.06 -16.664,-34.01 -2.293,-75.5 33.799,-162.94 143.149,-182.47 70.87,-12.66 142.09,8.81 177.28,41.81 24.09,22.55 50.66,47.68 66.1,68.53 16.14,21.74 15.4,46.35 -9.6,65.15"
         style="fill:#f9a70d;fill-opacity:1;fill-rule:nonzero;stroke:none"
         id="path34" />
      <path
         d="m 1264.21,2912.11 c 9.42,46.98 68.4,135.84 125.86,196.18 58.53,61.46 109.56,109.14 140.66,109.14 31.05,0 82.09,-47.68 140.63,-109.14 57.47,-60.34 116.47,-149.2 125.85,-196.18 9.43,-46.97 22.15,-145.11 -11.85,-287.16 -9.62,-40.22 -31.88,-44.05 -57.03,-44.05 -11.19,0 -384.05,0 -395.22,0 -25.16,0 -47.41,3.83 -57.06,44.05 -33.99,142.05 -21.26,240.19 -11.84,287.16"
         style="fill:#f79210;fill-opacity:1;fill-rule:nonzero;stroke:none"
         id="path36" />
      <path
         d="m 1530.73,1507.65 c 28.17,0 50.23,17.18 69.3,19.66 16.13,2.1 26.52,-2.9 41.3,-17.7 21.41,-21.45 52.24,-55.01 72.74,-80.15 14.78,-18.13 34.82,-48.39 7.3,-118.92 -33.79,-86.64 -155.1,-200.85 -190.64,-200.85 -35.55,0 -156.86,114.21 -190.65,200.85 -27.52,70.53 -7.48,100.79 7.3,118.92 20.5,25.14 51.33,58.7 72.75,80.15 14.77,14.8 25.16,19.8 41.3,17.7 19.06,-2.48 41.12,-19.66 69.3,-19.66"
         style="fill:#f79210;fill-opacity:1;fill-rule:nonzero;stroke:none"
         id="path38" />
      <path
         d="m 812.918,809.141 c -51.434,0 -59.578,-20.371 -59.578,-32.59 0,-58.563 149.199,-41.75 149.199,-153.77 0,-74.351 -64.164,-109.992 -146.652,-109.992 -72.309,0 -90.637,35.641 -90.637,67.211 0,6.109 0,10.699 1.531,16.801 1.524,5.097 5.094,7.648 12.215,4.078 26.481,-12.731 49.899,-17.82 73.836,-17.82 37.68,0 67.215,10.691 67.215,36.66 0,59.062 -149.195,46.84 -149.195,156.32 0,69.262 49.394,103.371 146.652,103.371 16.285,0 42.262,-2.039 60.082,-6.621 4.574,-1.019 6.613,-4.578 6.105,-8.66 l -8.14,-54.488 c -1.028,-6.102 -4.078,-6.61 -9.676,-5.59 -17.824,3.558 -38.695,5.09 -52.957,5.09"
         style="fill:#304488;fill-opacity:1;fill-rule:nonzero;stroke:none"
         id="path40" />
      <path
         d="m 1042.74,876.859 c 23.94,0 41.76,-17.82 41.76,-41.75 V 713.41 l 111.51,150.719 c 4.58,6.621 11.71,10.18 21.39,10.18 h 62.63 c 9.16,0 13.74,-6.61 8.14,-14.25 L 1173.6,708.828 c -1.52,-2.039 -1.52,-4.066 0,-6.109 45.83,-59.071 106.93,-145.629 130.86,-168.028 4.59,-4.082 3.07,-7.64 0,-10.191 -7.64,-6.109 -21.89,-14.262 -41.24,-14.262 -38.19,0 -58.55,15.782 -79.94,46.332 L 1084.5,697.109 V 525.52 c 0,-4.079 -3.57,-7.641 -7.64,-7.641 h -64.67 c -4.08,0 -7.64,3.562 -7.64,7.641 v 281.582 c -26.984,4.078 -39.206,20.878 -42.261,58.558 -0.508,6.11 3.563,8.649 9.676,8.649 24.953,0 45.825,2.55 70.775,2.55"
         style="fill:#304488;fill-opacity:1;fill-rule:nonzero;stroke:none"
         id="path42" />
      <path
         d="m 1584.49,670.129 -40.22,127.812 c -2.55,8.137 -6.11,11.7 -12.73,11.7 h -6.62 l -44.81,-140.02 c -1.02,-3.57 0.51,-5.601 4.58,-5.601 h 95.74 c 4.06,0 5.09,2.031 4.06,6.109 z m -47.35,206.73 c 50.92,0 63.13,-17.32 73.84,-46.839 l 91.64,-257.149 c 9.68,-26.48 17.32,-38.18 22.41,-45.312 1.53,-2.039 1.53,-5.09 -0.51,-6.629 -6.62,-5.09 -19.35,-10.692 -40.22,-10.692 -35.14,0 -56.01,12.731 -66.19,42.782 l -11.21,33.601 c -1.53,5.09 -4.08,6.617 -9.17,6.617 h -133.91 c -4.59,0 -6.63,-2.039 -8.15,-6.617 l -20.88,-61.609 c -1.52,-4.082 -4.07,-7.133 -10.19,-7.133 h -67.72 c -6.1,0 -10.18,5.601 -8.14,11.711 l 98.27,277.512 c -26.98,4.078 -39.2,20.878 -42.26,58.558 -0.51,6.11 3.57,8.649 9.67,8.649 42.27,0 80.45,2.55 122.72,2.55"
         style="fill:#304488;fill-opacity:1;fill-rule:nonzero;stroke:none"
         id="path44" />
      <path
         d="m 1748.22,865.66 c -0.51,6.11 3.56,8.649 9.68,8.649 26.99,0.511 49.9,2.55 70.27,2.55 24.95,0 42.26,-13.738 42.26,-42.269 V 656.379 c 0,-47.867 24.43,-72.82 67.72,-72.82 43.28,0 67.72,24.953 67.72,72.82 V 866.68 c 0,4.07 3.56,7.629 7.64,7.629 h 64.67 c 4.07,0 7.64,-3.559 7.64,-7.629 V 639.582 c 0,-80.973 -54.49,-126.281 -147.67,-126.281 -97.26,0 -147.66,41.25 -147.66,126.281 v 167.52 c -26.99,4.078 -39.21,20.878 -42.27,58.558"
         style="fill:#304488;fill-opacity:1;fill-rule:nonzero;stroke:none"
         id="path46" />
      <path
         d="M 2332.4,798.449 V 629.91 c 0,-37.68 8.15,-46.851 29.54,-49.91 5.6,-1.02 15.27,-1.02 20.87,-0.5 7.64,1.012 10.19,-3.57 8.67,-12.738 -4.08,-24.942 -28.02,-53.973 -69.77,-53.973 -49.39,0 -69.25,25.961 -69.25,92.672 v 192.988 c 0,3.051 -2.04,5.09 -5.09,5.09 h -81.47 c -4.07,0 -7.64,3.563 -7.64,7.641 v 55.5 c 0,4.07 3.57,7.629 7.64,7.629 h 253.07 c 4.07,0 7.64,-3.559 7.64,-7.629 v -55.5 c 0,-4.078 -3.57,-7.641 -7.64,-7.641 h -81.47 c -3.06,0 -5.1,-2.039 -5.1,-5.09"
         style="fill:#304488;fill-opacity:1;fill-rule:nonzero;stroke:none"
         id="path48" />
    </g>
  </g>
</svg>
